# xmcd
#
# Track frame offsets:
#	187
#	7810
#	74307
#	144250
#	206125
#	269377
#
# Disc length: 3721 seconds
#
# Revision: 1
# Processed by: cddbd v1.5.1PL0 Copyright (c) Steve Scherf et al.
# Submitted via: CDex 1.50Beta5
#
DISCID=4f0e8706
DTITLE=小原乃梨子 - 平成タイムボカン CDシネマ1 復活!世直しドロンボー
DYEAR=1996
DGENRE=
TTITLE0=平成タイムボカンの歌
TTITLE1=会いたかったよ×××
TTITLE2=コギャルに愛のお仕置きを
TTITLE3=住専のオヤジに愛の鉄拳を
TTITLE4=尻取り=悪い インチキ危険
TTITLE5=ZEったい消エナイ
EXTD=
EXTT0=
EXTT1=
EXTT2=
EXTT3=
EXTT4=
EXTT5=
PLAYORDER=
